<svg width="602" height="602" viewBox="0 0 602 602" version="1.1" xmlns="http://www.w3.org/2000/svg" xmlns:xlink="http://www.w3.org/1999/xlink" xmlns:figma="http://www.figma.com/figma/ns">
<title>Group</title>
<desc>Created using Figma</desc>
<g id="Canvas" transform="matrix(2 0 0 2 -4054 -4998)" figma:type="canvas">
<g id="Group" style="mix-blend-mode:normal;" figma:type="frame">
<g id="Group" style="mix-blend-mode:normal;" figma:type="frame">
<g id="Rectangle 10 (Stroke)" style="mix-blend-mode:normal;" figma:type="vector">
<use xlink:href="#path0_fill" transform="translate(2027.83 2499.38)" fill="#43DADD" style="mix-blend-mode:normal;"/>
</g>
<g id="Rectangle 6 (Stroke)" style="mix-blend-mode:normal;" figma:type="vector">
<use xlink:href="#path1_fill" transform="translate(2102.83 2574.38)" fill="#43DADD" style="mix-blend-mode:normal;"/>
</g>
</g>
<g id="Rectangle 14" style="mix-blend-mode:normal;" opacity="0.75" figma:type="vector">
<use xlink:href="#path2_fill" transform="matrix(6.12323e-17 1 -1 6.12323e-17 2252.83 2686.88)" fill="#43DADD" style="mix-blend-mode:normal;"/>
</g>
<g id="Rectangle 14" style="mix-blend-mode:normal;" opacity="0.5" figma:type="vector">
<use xlink:href="#path2_fill" transform="matrix(6.12323e-17 1 -1 6.12323e-17 2140.33 2686.88)" fill="#43DADD" style="mix-blend-mode:normal;"/>
</g>
</g>
</g>
<defs>
<path id="path0_fill" fill-rule="evenodd" d="M 262.5 37.5L 37.5 37.5L 37.5 262.5L 262.5 262.5L 262.5 37.5ZM 37.5 0L 0 0L 0 37.5L 0 262.5L 0 300L 37.5 300L 262.5 300L 300 300L 300 262.5L 300 37.5L 300 0L 262.5 0L 37.5 0Z"/>
<path id="path1_fill" fill-rule="evenodd" d="M 112.5 37.5L 37.5 37.5L 37.5 75L 112.5 75L 112.5 37.5ZM 37.5 0L 0 0L 0 37.5L 0 75L 0 112.5L 37.5 112.5L 112.5 112.5L 150 112.5L 150 75L 150 37.5L 150 0L 112.5 0L 37.5 0Z"/>
<path id="path2_fill" d="M 0 0L 37.5 0L 37.5 37.5L 0 37.5L 0 0Z"/>
</defs>
</svg>
